<?xml version="1.0" encoding="UTF-8"?>
<svg width="166px" height="166px" viewBox="0 0 166 166" version="1.1" xmlns="http://www.w3.org/2000/svg" xmlns:xlink="http://www.w3.org/1999/xlink">
    <!-- Generator: Sketch 51.3 (57544) - http://www.bohemiancoding.com/sketch -->
    <title>Group 2</title>
    <desc>Created with Sketch.</desc>
    <defs>
        <path d="M19.8590944,75.2482104 L36.3371725,70.3364756 C37.4332712,70.0097538 38.6298923,70.0879911 39.6611907,70.553806 C44.157149,72.5845317 49.1259433,73.6368801 54.1724827,73.6251236 C66.4800702,73.6208649 77.7290911,67.4000311 83.239568,57.5405666 C85.5104871,53.5201423 86.6873068,49.0768935 86.6741742,44.5727265 L86.680739,42.8385793 C85.7706441,28.0869595 72.5985577,16.3080746 56.3408261,15.5001233 L54.1628613,15.5001102 C49.1259433,15.4883666 44.157149,16.540715 39.6447474,18.5788287 C28.6355529,23.4990787 21.6789216,33.5582993 21.6741447,44.5727265 C21.6610121,49.0768935 22.8378318,53.5201423 25.1087509,57.5405666 C25.6296622,58.4627853 25.7171533,59.5328407 25.3517871,60.5130059 L19.8590944,75.2482104 Z M95.3408261,44.5577141 C95.3565982,50.2807444 93.8608915,55.9262508 90.9836794,61.019976 C84.0142069,73.4900059 69.7654471,81.3697287 54.1854576,81.3751102 C48.4001492,81.3885986 42.6855499,80.2976119 37.4212702,78.1825483 L14.3778131,85.0512711 C10.990195,86.0610419 7.76732578,83.1790531 8.89653182,80.1497408 L16.5776825,59.5435768 C14.2124511,54.836169 12.9924223,49.7267485 13.0074931,44.5611239 C13.0135255,30.6204142 21.8252586,17.8787347 35.7537949,11.653806 C41.4681702,9.07274805 47.7835212,7.7352104 54.1741594,7.75012335 L56.5795296,7.75600697 C77.4867762,8.78744472 94.1808108,23.7157641 95.3408261,42.6251233 L95.3408261,44.5577141 Z" id="path-1"></path>
        <path d="M19.0693991,3.10704533 C21.038814,1.11768789 23.710469,8.55922615e-16 26.4962963,0 C29.2821236,-1.71219892e-15 31.9537785,1.11768789 33.9231935,3.10704533 C35.8929969,5.09492772 37,7.79236957 37,10.6050857 C37,13.4178019 35.8929969,16.1152438 33.9229254,18.1033969 L19.6418994,32.5222638 C19.0110071,33.1592454 17.9881287,33.1592454 17.3572364,32.5222638 L3.0762104,18.1033969 C-1.02540351,13.962194 -1.02540346,7.24797754 3.07621051,3.10677468 C7.17782448,-1.03442817 13.8278546,-1.03442822 17.9294687,3.10677459 L18.4995679,3.68237646 L19.0693991,3.10704533 Z" id="path-3"></path>
    </defs>
    <g id="Page-1" stroke="none" stroke-width="1" fill="none" fill-rule="evenodd">
        <g id="トーク開始" transform="translate(-105.000000, -116.000000)">
            <g id="Group-2" transform="translate(105.000000, 116.000000)">
                <circle id="Oval" fill="#75D0D4" fill-rule="nonzero" cx="83" cy="83" r="83"></circle>
                <g id="Group" transform="translate(31.000000, 36.000000)">
                    <g id="message-circle">
                        <mask id="mask-2" fill="white">
                            <use xlink:href="#path-1"></use>
                        </mask>
                        <use id="Shape" fill="#000000" fill-rule="nonzero" xlink:href="#path-1"></use>
                        <g id="COLOR/-white" mask="url(#mask-2)" fill="#FFFFFF" fill-rule="evenodd">
                            <rect id="Rectangle" x="0" y="0" width="104" height="93"></rect>
                        </g>
                    </g>
                    <g id="heart" transform="translate(34.000000, 30.000000)">
                        <mask id="mask-4" fill="white">
                            <use xlink:href="#path-3"></use>
                        </mask>
                        <use id="Shape" fill="#FFFFFF" fill-rule="nonzero" xlink:href="#path-3"></use>
                    </g>
                </g>
            </g>
        </g>
    </g>
</svg>